# xmcd CD database file
#
# Track frame offsets:
#	150
#	21998
#	45530
#
# Disc length: 988 seconds
#
# Revision: 0
# Processed by: cddbd v1.5PL3 Copyright (c) Steve Scherf et al.
# Submitted via: CDex 1.50beta10
#
DISCID=1d03da03
DTITLE=RED WARRIORS - RUSSIAN HILL NO UEDE
DYEAR=2004
DGENRE=Rock and Roll
TTITLE0=RUSSIAN HILL NO UEDE
TTITLE1=ROLLING DOWN THE STREET
TTITLE2=WILD AND VAIN
EXTD=YEAR: 2004
EXTT0=
EXTT1=
EXTT2=
PLAYORDER=
